<?xml version="1.0" standalone="no"?>
<!DOCTYPE svg PUBLIC "-//W3C//DTD SVG 20010904//EN"
 "http://www.w3.org/TR/2001/REC-SVG-20010904/DTD/svg10.dtd">
<svg version="1.0" xmlns="http://www.w3.org/2000/svg"
 width="32.000000pt" height="32.000000pt" viewBox="0 0 32.000000 32.000000"
 preserveAspectRatio="xMidYMid meet">

<g transform="translate(0.000000,32.000000) scale(0.100000,-0.100000)"
fill="#000000" stroke="none">
<path d="M0 160 l0 -160 160 0 160 0 0 160 0 160 -160 0 -160 0 0 -160z m185
100 c36 -40 -7 -100 -58 -81 -31 12 -41 49 -21 78 18 28 55 30 79 3z m75 -67
c23 -20 26 -33 6 -33 -8 0 -17 -6 -20 -12 -5 -10 -7 -10 -12 0 -3 6 -12 12
-20 12 -19 0 -18 10 4 31 21 22 18 22 42 2z m-75 -57 c38 -16 70 -58 61 -81
-4 -12 -25 -15 -100 -15 -52 0 -98 4 -101 10 -11 17 26 71 58 85 40 18 41 18
82 1z"/>
</g>
</svg>
