<?xml version="1.0" standalone="no"?>
<!DOCTYPE svg PUBLIC "-//W3C//DTD SVG 20010904//EN"
 "http://www.w3.org/TR/2001/REC-SVG-20010904/DTD/svg10.dtd">
<svg version="1.0" xmlns="http://www.w3.org/2000/svg"
 width="64.000000pt" height="64.000000pt" viewBox="0 0 64.000000 64.000000"
 preserveAspectRatio="xMidYMid meet">

<g transform="translate(0.000000,64.000000) scale(0.100000,-0.100000)"
fill="#000000" stroke="none">
<path d="M150 449 c-80 -67 -146 -123 -148 -124 -8 -7 20 -45 32 -45 8 0 73
50 146 110 73 61 136 110 140 110 4 0 67 -49 140 -110 73 -60 138 -110 146
-110 7 0 18 9 24 21 10 18 6 25 -27 54 -21 19 -41 34 -45 35 -5 0 -8 41 -8 90
l0 90 -50 0 -50 0 0 -40 c0 -22 -3 -40 -6 -40 -3 0 -27 18 -53 40 -27 23 -58
40 -72 40 -16 0 -72 -40 -169 -121z"/>
<path d="M203 377 l-112 -92 2 -105 2 -105 88 -3 87 -3 0 76 0 75 50 0 50 0 0
-75 0 -76 88 3 87 3 2 105 3 105 -114 93 c-63 50 -116 92 -118 92 -1 -1 -54
-42 -115 -93z"/>
</g>
</svg>
