<?xml version="1.0" standalone="no"?>
<!DOCTYPE svg PUBLIC "-//W3C//DTD SVG 20010904//EN"
 "http://www.w3.org/TR/2001/REC-SVG-20010904/DTD/svg10.dtd">
<svg version="1.0" xmlns="http://www.w3.org/2000/svg"
 width="64.000000pt" height="64.000000pt" viewBox="0 0 64.000000 64.000000"
 preserveAspectRatio="xMidYMid meet">

<g transform="translate(0.000000,64.000000) scale(0.100000,-0.100000)"
fill="#000000" stroke="none">
<path d="M202 603 l3 -38 109 -3 c119 -3 139 4 134 47 l-3 26 -123 3 -123 3 3
-38z"/>
<path d="M98 589 c-16 -9 -18 -34 -18 -284 0 -235 2 -276 16 -289 13 -14 48
-16 223 -16 189 0 209 2 224 18 15 16 17 51 17 288 0 290 -1 294 -52 294 -23
0 -28 -4 -28 -23 0 -42 -16 -47 -160 -47 -144 0 -160 5 -160 47 0 17 -6 23
-22 23 -13 0 -31 -5 -40 -11z m178 -150 c7 -12 -53 -79 -71 -79 -18 0 -48 37
-40 50 4 6 15 8 24 5 11 -3 25 3 36 15 20 22 40 26 51 9z m202 -41 c-3 -9 -32
-14 -86 -16 -68 -2 -82 0 -82 13 0 12 15 15 86 15 64 0 85 -3 82 -12z m-202
-89 c3 -6 -11 -29 -34 -51 l-40 -40 -21 21 c-28 28 -27 44 4 39 17 -4 31 2 46
18 25 27 35 29 45 13z m199 -39 c0 -12 -16 -15 -80 -15 -69 0 -80 2 -83 18 -3
16 4 18 80 15 66 -2 83 -6 83 -18z m-199 -91 c7 -12 -53 -79 -71 -79 -18 0
-48 37 -40 50 4 6 15 8 24 5 11 -3 25 3 36 15 20 22 40 26 51 9z m202 -31 c-3
-9 -32 -14 -86 -16 -68 -2 -82 0 -82 13 0 12 15 15 86 15 64 0 85 -3 82 -12z"/>
</g>
</svg>
