<?xml version="1.0" standalone="no"?>
<!DOCTYPE svg PUBLIC "-//W3C//DTD SVG 20010904//EN"
 "http://www.w3.org/TR/2001/REC-SVG-20010904/DTD/svg10.dtd">
<svg version="1.0" xmlns="http://www.w3.org/2000/svg"
 width="250.000000pt" height="80.000000pt" viewBox="0 0 250.000000 80.000000"
 preserveAspectRatio="xMidYMid meet">

<g transform="translate(0.000000,80.000000) scale(0.100000,-0.100000)"
fill="#000000" stroke="none">
<path d="M374 733 c-12 -2 -34 -18 -50 -34 -25 -26 -29 -38 -29 -84 0 -46 4
-58 29 -84 35 -36 84 -48 127 -31 32 14 34 37 3 32 -57 -9 -78 -4 -101 22 -49
57 -13 155 58 156 14 0 30 -5 37 -12 9 -9 15 -9 24 0 8 8 8 15 3 21 -12 12
-73 20 -101 14z"/>
<path d="M1500 681 c0 -6 5 -13 10 -16 6 -3 10 1 10 9 0 9 -4 16 -10 16 -5 0
-10 -4 -10 -9z"/>
<path d="M1590 635 c0 -32 3 -56 6 -52 3 3 6 26 6 52 0 26 -3 49 -6 53 -3 3
-6 -21 -6 -53z"/>
<path d="M1243 630 c0 -30 2 -43 4 -28 3 20 11 28 31 31 l27 4 -27 2 c-19 1
-28 7 -31 24 -2 12 -4 -3 -4 -33z"/>
<path d="M1431 664 c0 -11 3 -14 6 -6 3 7 2 16 -1 19 -3 4 -6 -2 -5 -13z"/>
<path d="M1105 650 c-3 -11 -2 -27 2 -35 6 -11 9 -5 9 20 0 40 -2 43 -11 15z"/>
<path d="M1350 654 c0 -8 5 -12 10 -9 6 3 10 10 10 16 0 5 -4 9 -10 9 -5 0
-10 -7 -10 -16z"/>
<path d="M1704 644 c-4 -14 -2 -30 3 -35 5 -5 9 5 9 26 0 42 -3 44 -12 9z"/>
<path d="M1805 635 c0 -13 3 -21 8 -18 4 2 7 10 7 18 0 8 -3 16 -7 18 -5 3 -8
-5 -8 -18z"/>
<path d="M870 630 c0 -5 5 -10 11 -10 5 0 7 5 4 10 -3 6 -8 10 -11 10 -2 0 -4
-4 -4 -10z"/>
<path d="M1420 630 c-12 -7 -12 -12 -3 -21 15 -15 26 -7 21 15 -2 11 -7 13
-18 6z"/>
<path d="M1635 620 c3 -5 8 -10 11 -10 2 0 4 5 4 10 0 6 -5 10 -11 10 -5 0 -7
-4 -4 -10z"/>
<path d="M37 597 c-3 -8 -1 -20 4 -28 6 -10 9 -7 9 14 0 29 -5 35 -13 14z"/>
<path d="M922 580 c0 -19 2 -27 5 -17 2 9 2 25 0 35 -3 9 -5 1 -5 -18z"/>
<path d="M395 570 c3 -5 10 -10 16 -10 5 0 9 5 9 10 0 6 -7 10 -16 10 -8 0
-12 -4 -9 -10z"/>
<path d="M540 495 c0 -72 -3 -88 -20 -105 -11 -11 -29 -20 -39 -20 -21 0 -61
44 -61 66 0 8 -7 14 -15 14 -26 0 -17 -49 14 -81 52 -52 124 -34 151 37 6 14
10 59 10 100 0 67 -2 74 -20 74 -18 0 -20 -7 -20 -85z"/>
<path d="M891 530 c16 -33 16 -33 23 -13 4 9 4 14 0 10 -4 -4 -13 1 -21 11
-12 15 -13 14 -2 -8z"/>
<path d="M55 510 c-3 -5 -1 -10 4 -10 6 0 11 5 11 10 0 6 -2 10 -4 10 -3 0 -8
-4 -11 -10z"/>
<path d="M936 444 c-4 -9 -4 -19 -1 -22 2 -3 7 3 11 12 4 9 4 19 1 22 -2 3 -7
-3 -11 -12z"/>
<path d="M1113 415 c0 -27 2 -38 4 -22 2 15 2 37 0 50 -2 12 -4 0 -4 -28z"/>
<path d="M1192 428 c-1 -20 -5 -45 -8 -55 -5 -17 -5 -17 6 0 6 9 9 34 7 55
l-4 37 -1 -37z"/>
<path d="M1691 403 c1 -32 4 -46 6 -30 5 30 15 34 36 12 13 -13 16 -10 22 22
3 19 2 40 -3 45 -6 6 -8 0 -5 -16 5 -23 2 -26 -22 -26 -24 0 -27 3 -23 25 3
14 1 25 -3 25 -5 0 -8 -26 -8 -57z"/>
<path d="M1983 453 c9 -2 25 -2 35 0 9 3 1 5 -18 5 -19 0 -27 -2 -17 -5z"/>
<path d="M2389 443 c-11 -15 -11 -16 1 -5 8 6 23 12 35 12 12 0 27 -6 35 -12
12 -11 12 -10 1 5 -7 9 -24 17 -36 17 -12 0 -29 -8 -36 -17z"/>
<path d="M20 446 c0 -16 33 -76 41 -76 5 0 9 5 9 10 0 6 -4 10 -10 10 -5 0
-10 6 -10 13 -1 13 -30 56 -30 43z"/>
<path d="M480 430 c6 -11 13 -20 15 -20 3 0 5 9 5 20 0 11 -7 20 -15 20 -13 0
-14 -4 -5 -20z"/>
<path d="M621 380 c-31 -68 -43 -81 -56 -60 -11 18 -35 -9 -26 -28 5 -10 14
-29 20 -44 6 -16 14 -28 18 -28 8 0 104 207 103 223 0 4 -6 7 -13 7 -7 0 -28
-31 -46 -70z"/>
<path d="M1805 441 c-3 -5 -1 -12 5 -16 5 -3 10 1 10 9 0 18 -6 21 -15 7z"/>
<path d="M2253 434 c2 -13 -7 -20 -25 -24 l-28 -5 24 -11 c21 -10 25 -8 36 14
7 16 7 29 1 35 -6 6 -9 2 -8 -9z"/>
<path d="M1250 425 c0 -9 5 -15 11 -13 6 2 11 8 11 13 0 5 -5 11 -11 13 -6 2
-11 -4 -11 -13z"/>
<path d="M2095 429 c-9 -14 -2 -20 14 -10 8 6 9 11 3 15 -6 3 -14 1 -17 -5z"/>
<path d="M891 420 c0 -8 3 -21 8 -28 6 -10 10 -10 21 3 10 12 10 15 -3 15 -8
0 -18 6 -20 13 -4 8 -6 7 -6 -3z"/>
<path d="M1466 403 c20 -37 29 -41 38 -17 9 22 8 24 -9 17 -9 -3 -22 3 -31 13
-10 12 -9 8 2 -13z"/>
<path d="M1580 405 c0 -8 9 -10 25 -7 14 2 25 6 25 7 0 1 -11 5 -25 7 -16 3
-25 1 -25 -7z"/>
<path d="M1306 389 c20 -22 34 -24 34 -5 0 7 -11 16 -25 19 -25 4 -25 4 -9
-14z"/>
<path d="M1845 396 c11 -8 16 -19 12 -30 -4 -10 -3 -15 3 -11 16 10 12 42 -6
49 -25 10 -29 7 -9 -8z"/>
<path d="M2070 380 c0 -5 5 -10 10 -10 6 0 10 5 10 10 0 6 -4 10 -10 10 -5 0
-10 -4 -10 -10z"/>
<path d="M2392 364 c10 -10 20 -16 22 -13 3 3 -5 11 -17 18 -21 13 -21 12 -5
-5z"/>
<path d="M2449 363 c-13 -16 -12 -17 4 -4 16 13 21 21 13 21 -2 0 -10 -8 -17
-17z"/>
<path d="M852 320 c0 -14 2 -19 5 -12 2 6 2 18 0 25 -3 6 -5 1 -5 -13z"/>
<path d="M35 320 c3 -5 8 -10 11 -10 2 0 4 5 4 10 0 6 -5 10 -11 10 -5 0 -7
-4 -4 -10z"/>
<path d="M910 310 c-6 -11 -8 -20 -6 -20 3 0 10 9 16 20 6 11 8 20 6 20 -3 0
-10 -9 -16 -20z"/>
<path d="M107 283 c-3 -16 -1 -32 4 -38 5 -5 9 5 9 28 0 44 -6 48 -13 10z"/>
<path d="M785 219 c-4 -6 -5 -12 -2 -15 2 -3 7 2 10 11 7 17 1 20 -8 4z"/>
<path d="M2170 180 c0 -29 3 -50 7 -47 7 8 6 88 -2 95 -3 3 -5 -19 -5 -48z"/>
<path d="M2280 175 c0 -30 3 -55 8 -55 4 0 7 25 7 55 0 30 -3 55 -7 55 -5 0
-8 -25 -8 -55z"/>
<path d="M2420 214 c0 -8 5 -12 10 -9 6 3 10 10 10 16 0 5 -4 9 -10 9 -5 0
-10 -7 -10 -16z"/>
<path d="M1243 175 c0 -27 2 -38 4 -22 2 15 2 37 0 50 -2 12 -4 0 -4 -28z"/>
<path d="M1540 171 c0 -23 2 -41 4 -41 8 0 12 71 4 76 -4 3 -8 -13 -8 -35z"/>
<path d="M834 184 c-18 -14 -18 -15 4 -4 12 6 22 13 22 15 0 8 -5 6 -26 -11z"/>
<path d="M1431 174 c0 -11 3 -14 6 -6 3 7 2 16 -1 19 -3 4 -6 -2 -5 -13z"/>
<path d="M1781 174 c0 -11 3 -14 6 -6 3 7 2 16 -1 19 -3 4 -6 -2 -5 -13z"/>
<path d="M2012 170 c0 -14 2 -19 5 -12 2 6 2 18 0 25 -3 6 -5 1 -5 -13z"/>
<path d="M760 164 c-10 -11 -9 -14 8 -14 25 0 37 16 18 23 -8 3 -20 -1 -26 -9z"/>
<path d="M160 160 c8 -5 24 -10 34 -10 26 0 18 6 -19 14 -22 5 -26 4 -15 -4z"/>
<path d="M1132 158 c6 -18 28 -21 28 -4 0 9 -7 16 -16 16 -9 0 -14 -5 -12 -12z"/>
<path d="M1590 161 c0 -5 7 -14 15 -21 13 -10 15 -9 15 9 0 12 -6 21 -15 21
-8 0 -15 -4 -15 -9z"/>
<path d="M2106 143 c-6 -14 -5 -15 5 -6 7 7 10 15 7 18 -3 3 -9 -2 -12 -12z"/>
<path d="M2390 130 c0 -5 5 -10 11 -10 5 0 7 5 4 10 -3 6 -8 10 -11 10 -2 0
-4 -4 -4 -10z"/>
<path d="M290 110 c0 -5 5 -10 10 -10 6 0 10 5 10 10 0 6 -4 10 -10 10 -5 0
-10 -4 -10 -10z"/>
<path d="M205 100 c3 -5 18 -10 32 -10 32 0 28 5 -10 14 -19 4 -26 3 -22 -4z"/>
<path d="M738 103 c6 -2 18 -2 25 0 6 3 1 5 -13 5 -14 0 -19 -2 -12 -5z"/>
<path d="M340 70 c-21 -12 -28 -19 -18 -20 10 0 32 9 50 20 42 25 15 25 -32 0z"/>
<path d="M600 70 c19 -11 42 -19 50 -19 8 0 -1 8 -20 19 -19 11 -42 19 -50 19
-8 0 1 -8 20 -19z"/>
</g>
</svg>
