<?xml version="1.0" standalone="no"?>
<!DOCTYPE svg PUBLIC "-//W3C//DTD SVG 20010904//EN"
 "http://www.w3.org/TR/2001/REC-SVG-20010904/DTD/svg10.dtd">
<svg version="1.0" xmlns="http://www.w3.org/2000/svg"
 width="512.000000pt" height="512.000000pt" viewBox="0 0 512.000000 512.000000"
 preserveAspectRatio="xMidYMid meet">

<g transform="translate(0.000000,512.000000) scale(0.100000,-0.100000)"
fill="#000000" stroke="none">
<path d="M325 4026 c-140 -44 -234 -146 -264 -284 -6 -29 -11 -138 -11 -242 0
-177 1 -191 20 -210 11 -11 29 -20 40 -20 11 0 29 9 40 20 19 19 20 33 20 228
0 180 3 212 19 248 28 61 75 109 133 135 l53 24 2185 0 2185 0 53 -24 c58 -26
105 -74 133 -135 17 -38 19 -80 19 -671 l0 -630 -24 -50 c-12 -28 -40 -65 -61
-84 -77 -68 -61 -66 -580 -69 l-470 -2 -160 131 c-88 72 -178 139 -200 150
-53 25 -156 25 -210 0 -85 -38 -143 -125 -150 -224 l-3 -52 -1364 0 c-1237 0
-1366 2 -1399 16 -56 26 -110 79 -135 134 -23 47 -24 61 -24 258 0 194 -1 208
-20 227 -26 26 -55 25 -81 -1 -20 -20 -21 -29 -17 -242 l3 -222 32 -67 c39
-82 100 -145 179 -184 l59 -29 1400 -5 1399 -5 93 -464 c106 -529 107 -532
198 -577 68 -33 131 -30 197 9 38 22 53 42 108 144 109 200 162 233 378 233
146 0 186 13 239 73 59 68 68 167 20 238 -12 18 -108 103 -212 188 l-190 156
420 5 420 5 59 29 c107 52 180 147 205 264 15 74 15 1220 0 1294 -29 136 -127
243 -259 282 -48 14 -273 16 -2244 15 -1741 0 -2199 -3 -2231 -13z m3128
-1628 c53 -41 353 -283 652 -526 77 -63 146 -121 153 -130 21 -27 15 -80 -13
-107 -23 -24 -31 -25 -133 -25 -135 0 -200 -12 -278 -50 -82 -40 -138 -103
-207 -232 -60 -112 -76 -128 -124 -128 -41 0 -71 25 -83 68 -9 33 -191 942
-203 1016 -7 45 11 92 49 125 29 26 43 31 83 31 43 0 57 -6 104 -42z"/>
<path d="M516 3628 c-14 -20 -16 -84 -16 -498 1 -632 -20 -590 283 -590 165 0
186 2 200 18 22 24 21 55 -1 75 -15 14 -48 17 -188 19 l-169 3 -3 479 c-2 429
-4 482 -19 498 -23 25 -68 23 -87 -4z"/>
<path d="M1369 3636 c-82 -23 -168 -76 -228 -143 -319 -348 -101 -953 344
-953 281 0 497 241 497 555 0 161 -49 288 -153 400 -68 72 -143 119 -224 140
-70 18 -172 18 -236 1z m231 -122 c175 -56 294 -277 263 -488 -36 -250 -252
-421 -459 -362 -208 60 -339 295 -291 523 30 142 109 253 217 308 89 45 170
51 270 19z"/>
<path d="M2427 3640 c-109 -28 -234 -132 -295 -247 -154 -291 -51 -679 216
-810 73 -37 80 -38 182 -38 100 0 109 2 175 34 122 60 243 210 262 324 10 61
-6 67 -186 67 -140 0 -160 -2 -174 -18 -22 -24 -21 -55 1 -75 15 -13 39 -17
115 -17 53 0 97 -4 97 -8 0 -16 -56 -86 -95 -121 -157 -138 -387 -82 -490 119
-85 167 -75 378 25 526 70 106 159 157 271 156 96 0 162 -34 241 -123 66 -73
92 -84 121 -51 26 29 20 61 -22 117 -45 60 -116 115 -187 146 -56 24 -195 34
-257 19z"/>
<path d="M3546 3628 c-14 -20 -16 -87 -16 -533 0 -563 -1 -555 60 -555 61 0
60 -8 60 555 0 563 1 555 -60 555 -18 0 -34 -8 -44 -22z"/>
<path d="M3895 3625 l-25 -24 0 -514 c0 -485 1 -515 18 -530 10 -10 30 -17 44
-17 53 0 53 0 58 456 l5 422 249 -429 c136 -236 256 -434 266 -439 33 -18 68
-11 89 16 21 26 21 36 21 533 0 557 1 551 -59 551 -61 0 -61 5 -63 -450 l-3
-414 -244 422 c-134 233 -251 427 -261 432 -32 17 -70 11 -95 -15z"/>
<path d="M70 3180 c-29 -29 -29 -141 0 -170 11 -11 29 -20 40 -20 40 0 60 35
60 105 0 70 -20 105 -60 105 -11 0 -29 -9 -40 -20z"/>
</g>
</svg>
