<?xml version="1.0" standalone="no"?>
<!DOCTYPE svg PUBLIC "-//W3C//DTD SVG 20010904//EN"
 "http://www.w3.org/TR/2001/REC-SVG-20010904/DTD/svg10.dtd">
<svg version="1.0" xmlns="http://www.w3.org/2000/svg"
 width="64.000000pt" height="64.000000pt" viewBox="0 0 64.000000 64.000000"
 preserveAspectRatio="xMidYMid meet">

<g transform="translate(0.000000,64.000000) scale(0.100000,-0.100000)"
fill="#000000" stroke="none">
<path d="M217 613 c-4 -3 -7 -37 -7 -74 0 -52 -4 -68 -16 -73 -10 -4 -14 -14
-11 -26 4 -17 -1 -19 -51 -22 -46 -2 -57 -6 -60 -22 -5 -26 15 -36 71 -36 31
0 46 -4 42 -11 -4 -5 0 -18 9 -27 11 -13 16 -44 18 -112 l3 -95 53 -3 52 -3 0
-45 c0 -39 2 -44 23 -43 12 0 67 20 122 43 l100 42 3 257 2 257 -173 0 c-96 0
-177 -3 -180 -7z"/>
</g>
</svg>
