<?xml version="1.0" standalone="no"?>
<!DOCTYPE svg PUBLIC "-//W3C//DTD SVG 20010904//EN"
 "http://www.w3.org/TR/2001/REC-SVG-20010904/DTD/svg10.dtd">
<svg version="1.0" xmlns="http://www.w3.org/2000/svg"
 width="1830.000000pt" height="600.000000pt" viewBox="0 0 1830.000000 600.000000"
 preserveAspectRatio="xMidYMid meet">

<g transform="translate(0.000000,600.000000) scale(0.100000,-0.100000)"
fill="#000000" stroke="none">
<path d="M2515 5744 c-16 -2 -73 -9 -125 -15 -858 -98 -1618 -684 -1953 -1504
-74 -182 -127 -383 -158 -605 -20 -137 -17 -495 4 -641 117 -797 610 -1479
1327 -1839 699 -351 1553 -337 2237 36 693 377 1155 1052 1259 1834 19 147 22
440 5 580 -93 773 -541 1452 -1214 1840 -256 147 -550 248 -857 295 -99 15
-459 28 -525 19z m520 -129 c932 -147 1675 -819 1908 -1725 175 -677 29 -1402
-396 -1969 -96 -128 -294 -330 -420 -429 -707 -553 -1651 -653 -2454 -260
-230 113 -444 267 -628 452 -344 347 -562 776 -647 1271 -29 174 -32 520 -5
695 62 395 210 747 449 1069 91 122 325 355 449 448 360 270 746 418 1214 467
85 9 434 -4 530 -19z"/>
<path d="M2407 5355 c-905 -124 -1633 -858 -1753 -1768 -23 -172 -15 -489 15
-642 159 -796 729 -1412 1495 -1615 204 -54 290 -64 536 -64 202 1 239 4 365
28 421 81 787 275 1085 575 320 322 513 710 581 1166 21 135 18 463 -5 599
-77 463 -285 854 -628 1181 -314 300 -709 485 -1161 545 -107 14 -410 11 -530
-5z m621 -119 c523 -93 989 -398 1284 -841 459 -689 435 -1575 -61 -2245 -69
-92 -232 -263 -326 -340 -471 -385 -1102 -528 -1692 -385 -689 167 -1246 714
-1423 1397 -76 296 -82 644 -15 933 195 836 927 1456 1775 1504 144 8 337 -2
458 -23z"/>
<path d="M1670 4413 c0 -141 56 -330 136 -465 87 -145 266 -313 414 -388 25
-13 79 -36 120 -51 l75 -28 -372 -1 -373 0 0 -175 0 -175 388 -1 387 0 -81
-28 c-245 -85 -444 -250 -572 -474 -72 -126 -122 -302 -122 -432 l0 -65 195 0
195 0 0 48 c0 130 70 283 179 392 71 71 168 131 249 155 l22 6 0 -295 0 -296
170 0 170 0 0 295 0 294 41 -14 c145 -51 273 -163 339 -297 39 -81 69 -190 70
-255 l0 -33 197 0 196 0 -6 99 c-25 381 -297 728 -679 866 l-93 34 388 1 387
0 0 175 0 175 -377 0 -378 0 65 23 c385 137 661 486 687 870 l6 97 -195 0
-195 0 -7 -65 c-24 -231 -179 -433 -395 -515 l-51 -20 0 300 0 300 -170 0
-170 0 0 -295 c0 -343 11 -320 -121 -253 -187 94 -329 309 -329 500 l0 48
-195 0 -195 0 0 -57z"/>
<path d="M11280 4499 c-390 -49 -635 -244 -739 -589 l-25 -85 -4 -842 -3 -843
200 0 200 0 4 793 c3 752 4 796 23 867 28 104 61 167 119 225 83 85 185 122
355 131 255 15 447 -69 524 -229 62 -128 60 -96 64 -979 l3 -808 205 0 205 0
-4 828 c-3 729 -5 835 -20 895 -92 374 -350 589 -763 637 -102 11 -250 11
-344 -1z"/>
<path d="M16905 4495 c-134 -18 -209 -41 -320 -95 -160 -78 -264 -180 -341
-335 -24 -49 -54 -126 -66 -170 -22 -79 -23 -88 -26 -917 l-3 -838 201 0 200
0 0 305 0 305 550 0 551 0 -1 -302 -1 -303 200 -3 201 -2 0 777 c0 844 -3 892
-55 1051 -15 42 -45 109 -67 147 -49 83 -170 206 -251 254 -200 118 -491 166
-772 126z m400 -358 c164 -46 265 -149 311 -318 19 -68 36 -385 32 -594 l-3
-160 -549 -3 -548 -2 4 327 c4 270 8 341 22 403 49 202 156 310 351 354 84 19
303 15 380 -7z"/>
<path d="M6112 3618 c3 -836 3 -844 26 -923 66 -238 217 -421 428 -516 240
-109 613 -125 884 -37 272 87 451 276 528 557 l26 96 4 833 3 832 -205 0 -205
0 -4 -812 c-3 -746 -4 -818 -21 -872 -71 -238 -225 -338 -521 -339 -244 0
-401 78 -477 239 -62 132 -61 123 -65 992 l-4 792 -200 0 -200 0 3 -842z"/>
<path d="M8340 4285 l0 -175 370 0 370 0 0 -985 0 -985 200 0 200 0 2 983 3
982 368 3 367 2 0 175 0 175 -940 0 -940 0 0 -175z"/>
<path d="M13810 3300 l0 -1160 588 0 c599 1 674 4 821 41 146 36 248 92 341
183 112 110 160 240 160 428 0 296 -126 491 -369 573 l-64 22 59 32 c118 63
202 158 246 279 17 46 21 81 22 187 1 112 -2 140 -22 198 -75 215 -247 334
-532 367 -47 5 -347 10 -667 10 l-583 0 0 -1160z m1231 807 c98 -38 149 -104
170 -221 28 -165 -39 -305 -176 -368 -49 -23 -58 -23 -437 -26 l-388 -3 0 321
0 321 393 -3 c340 -4 398 -6 438 -21z m-39 -917 c147 -21 235 -79 286 -188 24
-51 27 -69 27 -167 0 -105 -2 -114 -33 -178 -24 -49 -48 -79 -83 -107 -92 -73
-102 -74 -571 -78 l-418 -3 0 359 c0 197 3 362 7 365 10 11 710 8 785 -3z"/>
<path d="M13069 2591 c-51 -10 -124 -55 -155 -96 -29 -38 -54 -112 -54 -160 0
-53 29 -134 63 -172 73 -83 212 -109 315 -57 193 96 186 378 -13 465 -50 22
-110 29 -156 20z"/>
<path d="M13012 1470 c-21 -37 -21 -40 -4 -40 10 0 36 18 57 40 l39 40 -34 0
c-30 0 -38 -6 -58 -40z"/>
<path d="M8410 1379 c-48 -30 -59 -48 -60 -97 0 -79 22 -97 160 -131 94 -24
120 -41 120 -81 0 -61 -66 -92 -155 -76 -41 8 -85 48 -85 77 0 19 -3 21 -37
23 -24 1 -21 -49 5 -83 40 -55 68 -66 156 -66 74 0 86 3 118 27 94 72 65 187
-55 218 -118 31 -147 42 -162 62 -21 31 -19 45 10 73 19 20 34 25 75 25 64 0
88 -12 106 -56 11 -26 20 -34 40 -34 24 0 26 3 21 30 -16 75 -67 110 -164 110
-41 0 -68 -6 -93 -21z"/>
<path d="M11215 1386 c-73 -33 -117 -114 -118 -218 -1 -91 38 -171 102 -205
73 -38 175 -30 230 20 26 24 60 92 61 120 0 30 -49 22 -60 -10 -28 -77 -60
-103 -125 -103 -92 0 -149 68 -149 180 -1 119 51 180 151 180 41 0 58 -5 82
-25 16 -14 33 -35 36 -45 4 -14 15 -20 35 -20 24 0 27 3 23 23 -9 36 -49 83
-86 101 -42 19 -140 21 -182 2z"/>
<path d="M12115 1386 c-109 -48 -157 -214 -97 -332 84 -163 325 -148 383 23
17 49 17 137 0 186 -17 49 -67 106 -108 123 -41 18 -139 17 -178 0z m173 -57
c13 -8 32 -31 43 -51 43 -84 33 -182 -26 -246 -32 -35 -36 -37 -99 -37 -60 0
-67 2 -99 33 -62 60 -74 181 -26 258 42 68 134 88 207 43z"/>
<path d="M12940 1389 c-35 -14 -78 -57 -103 -104 -30 -56 -30 -173 0 -230 40
-76 105 -115 190 -115 90 1 166 54 194 137 21 59 16 161 -8 208 -25 48 -68 90
-106 104 -35 14 -133 13 -167 0z m165 -59 c88 -54 98 -213 20 -298 -32 -35
-36 -37 -99 -37 -60 0 -67 2 -99 33 -82 80 -70 257 21 307 40 21 118 19 157
-5z"/>
<path d="M13400 1377 c-65 -34 -101 -97 -108 -187 -6 -92 14 -146 75 -199 69
-62 166 -68 244 -17 l38 25 3 -22 c2 -14 11 -23 26 -25 22 -3 22 -2 22 112 l0
116 -100 0 -100 0 0 -25 c0 -24 2 -25 71 -25 l72 0 -6 -36 c-15 -89 -131 -135
-215 -84 -88 54 -96 241 -13 315 16 13 41 20 85 23 56 4 65 1 93 -22 18 -15
35 -36 38 -46 4 -14 15 -20 36 -20 27 0 30 3 24 23 -9 31 -36 67 -69 91 -20
15 -46 22 -99 24 -61 3 -79 0 -117 -21z"/>
<path d="M14050 1389 c-36 -14 -79 -58 -103 -104 -15 -30 -20 -60 -21 -115 -1
-95 27 -159 87 -198 35 -23 51 -27 117 -27 69 0 80 3 114 29 37 28 75 93 76
129 0 12 -8 17 -29 17 -25 0 -30 -5 -35 -34 -4 -22 -20 -46 -42 -65 -28 -25
-43 -31 -82 -31 -97 0 -147 63 -147 185 1 117 50 175 150 175 57 0 88 -17 110
-61 11 -20 23 -29 40 -29 51 0 12 86 -54 120 -44 22 -136 27 -181 9z"/>
<path d="M15925 1386 c-108 -50 -153 -215 -92 -338 35 -70 80 -101 157 -106
73 -5 118 9 157 51 28 30 53 83 53 113 0 21 -50 17 -56 -3 -23 -78 -64 -113
-129 -113 -94 0 -149 66 -149 180 0 120 51 180 153 180 47 0 57 -4 85 -32 18
-18 35 -39 37 -46 3 -8 15 -12 31 -10 l27 3 -18 41 c-29 63 -72 88 -156 92
-44 1 -81 -3 -100 -12z"/>
<path d="M16540 1389 c-36 -14 -79 -58 -103 -104 -24 -47 -29 -149 -8 -208 28
-83 104 -136 194 -137 85 0 150 39 190 115 30 57 30 174 0 230 -26 48 -68 90
-106 104 -35 14 -133 13 -167 0z m160 -54 c92 -48 106 -226 24 -306 -27 -26
-43 -33 -86 -37 -99 -7 -163 63 -163 178 0 117 52 180 148 180 26 0 61 -7 77
-15z"/>
<path d="M6100 1250 c0 -177 11 -230 55 -269 56 -49 183 -55 245 -11 52 37 60
71 60 254 l0 166 -30 0 -30 0 0 -160 c0 -176 -9 -212 -56 -230 -35 -14 -94
-12 -124 3 -49 24 -60 67 -60 235 l0 152 -30 0 -30 0 0 -140z"/>
<path d="M6560 1170 l0 -220 25 0 25 0 2 177 3 177 115 -177 c110 -169 116
-177 148 -177 l32 0 0 221 0 220 -27 -3 -28 -3 2 -167 c0 -93 -3 -168 -7 -168
-4 0 -58 77 -119 170 -103 158 -112 170 -141 170 l-30 0 0 -220z"/>
<path d="M7010 1170 l0 -220 30 0 30 0 0 220 0 220 -30 0 -30 0 0 -220z"/>
<path d="M7181 1218 c34 -95 68 -194 77 -220 15 -45 18 -48 52 -48 36 0 36 0
62 78 14 42 49 141 77 220 l51 143 -32 -3 -32 -3 -60 -182 c-33 -101 -63 -183
-66 -183 -3 0 -32 82 -65 183 l-60 182 -32 3 -32 3 60 -173z"/>
<path d="M7550 1170 l0 -220 155 0 155 0 0 25 0 25 -125 0 -125 0 0 75 0 75
115 0 115 0 0 25 0 25 -115 0 -115 0 0 70 0 69 123 3 c118 3 122 4 125 26 l3
22 -155 0 -156 0 0 -220z"/>
<path d="M7930 1170 l0 -220 30 0 30 0 0 95 0 95 84 0 c108 0 127 -13 133 -91
7 -95 9 -99 49 -99 30 0 33 2 26 18 -5 9 -13 44 -17 76 -9 79 -19 103 -46 111
-21 7 -21 8 -3 17 37 20 54 51 53 103 0 53 -8 70 -49 98 -20 14 -48 17 -157
17 l-133 0 0 -220z m265 150 c23 -26 23 -86 1 -109 -13 -12 -41 -17 -111 -19
l-95 -4 0 76 0 76 93 0 c82 0 96 -3 112 -20z"/>
<path d="M8760 1170 l0 -220 30 0 30 0 0 220 0 220 -30 0 -30 0 0 -220z"/>
<path d="M8920 1170 l0 -220 108 0 c122 0 170 16 214 68 42 50 59 157 37 237
-29 104 -84 134 -246 135 l-113 0 0 -220z m264 141 c33 -31 49 -91 44 -156 -9
-111 -59 -155 -174 -155 l-74 0 0 171 0 171 89 -4 c78 -3 93 -6 115 -27z"/>
<path d="M9473 1373 c-5 -15 -143 -369 -160 -410 -3 -9 5 -13 25 -13 28 0 32
5 54 63 l24 62 96 3 96 3 23 -66 c23 -62 25 -65 56 -65 l33 0 -24 63 c-13 34
-51 133 -85 220 l-62 157 -35 0 c-24 0 -37 -5 -41 -17z m86 -155 l30 -88 -74
0 c-41 0 -75 2 -75 4 0 4 39 116 62 176 12 31 15 25 57 -92z"/>
<path d="M9762 1173 l3 -218 115 0 c139 0 177 14 217 82 31 53 43 168 24 226
-32 97 -90 126 -249 127 l-113 0 3 -217z m237 154 c44 -22 65 -62 69 -131 5
-78 -9 -123 -49 -162 -28 -27 -37 -29 -115 -33 l-84 -3 0 171 0 171 78 0 c42
0 88 -6 101 -13z"/>
<path d="M10330 1365 c0 -24 2 -25 75 -25 l75 0 0 -195 0 -195 30 0 30 0 0
195 0 194 73 3 c66 3 72 5 75 26 l3 22 -180 0 -181 0 0 -25z"/>
<path d="M10737 1323 c-4 -38 -7 -137 -7 -220 l0 -153 155 0 155 0 0 25 0 25
-125 0 -125 0 0 75 0 75 115 0 c69 0 115 4 116 10 1 6 2 16 3 23 1 9 -30 13
-114 17 l-115 5 -3 68 -3 67 126 0 125 0 0 25 0 25 -149 0 -148 0 -6 -67z"/>
<path d="M11570 1171 l0 -221 25 0 25 0 2 177 3 176 115 -176 c110 -169 116
-177 148 -177 l32 0 0 220 0 220 -30 0 -30 0 -2 -173 -3 -174 -110 171 c-102
158 -113 171 -143 174 l-32 3 0 -220z"/>
<path d="M12490 1170 l0 -220 145 0 145 0 0 25 0 25 -115 0 -115 0 0 195 0
195 -30 0 -30 0 0 -220z"/>
<path d="M13790 1170 l0 -220 25 0 25 0 0 220 0 220 -25 0 -25 0 0 -220z"/>
<path d="M14497 1348 c-8 -24 -47 -123 -85 -220 l-70 -178 34 0 c19 0 34 4 34
10 0 5 9 34 21 65 l21 56 95 -3 96 -3 22 -60 c20 -54 26 -60 54 -63 17 -2 31
0 31 5 -1 4 -38 103 -83 218 l-82 210 -36 3 c-35 3 -37 1 -52 -40z m92 -121
c17 -49 31 -90 31 -93 0 -2 -31 -4 -70 -4 -53 0 -70 3 -70 14 0 27 63 187 71
179 4 -4 21 -48 38 -96z"/>
<path d="M14970 1170 l0 -220 30 0 30 0 2 174 3 174 111 -172 c108 -166 112
-171 147 -174 l37 -3 0 220 0 221 -30 0 -30 0 -2 -176 -3 -176 -114 176 c-110
170 -116 176 -148 176 l-33 0 0 -220z"/>
<path d="M15480 1233 c-34 -87 -73 -186 -86 -221 l-24 -63 31 3 c28 3 34 9 54
63 l22 60 96 3 95 3 21 -56 c12 -31 21 -60 21 -65 0 -6 16 -10 35 -10 19 0 35
1 35 3 0 1 -38 99 -84 217 l-84 215 -35 3 -35 3 -62 -158z m134 0 l35 -103
-75 0 c-57 0 -75 3 -72 13 3 6 20 54 38 105 18 51 34 91 35 90 2 -2 19 -49 39
-105z"/>
<path d="M16280 1170 l0 -220 30 0 30 0 0 220 0 220 -30 0 -30 0 0 -220z"/>
<path d="M16910 1170 l0 -220 30 0 30 0 2 172 3 173 113 -173 c102 -157 115
-172 141 -172 16 0 31 6 33 13 3 6 5 104 4 217 l-1 205 -27 3 -28 3 -2 -178
-3 -178 -114 178 c-111 171 -115 177 -148 177 l-33 0 0 -220z"/>
<path d="M17473 1373 c-5 -15 -143 -368 -160 -410 -3 -9 5 -13 25 -13 28 0 32
5 54 63 l24 62 96 3 96 3 23 -66 c23 -62 25 -65 56 -65 18 0 33 1 33 3 0 1
-38 99 -85 217 l-84 215 -35 3 c-28 2 -38 -1 -43 -15z m80 -140 l37 -103 -76
0 c-57 0 -75 3 -72 13 3 6 20 54 38 105 18 51 34 91 35 90 1 -2 19 -49 38
-105z"/>
<path d="M17770 1170 l0 -220 145 0 145 0 0 25 0 25 -120 0 -120 0 0 195 0
195 -25 0 -25 0 0 -220z"/>
<path d="M7465 654 c-11 -3 -30 -7 -42 -10 -34 -7 -94 -64 -114 -109 -25 -55
-25 -176 0 -230 45 -97 159 -141 258 -100 48 20 71 41 94 87 29 56 25 78 -11
78 -24 0 -30 -4 -30 -21 0 -84 -118 -137 -197 -89 -41 25 -59 53 -73 114 -24
110 29 216 117 230 58 10 125 -19 142 -63 11 -25 19 -31 43 -31 23 0 29 4 24
16 -3 9 -6 19 -6 24 0 15 -52 70 -79 84 -30 16 -97 26 -126 20z"/>
<path d="M10756 649 c-85 -21 -144 -97 -153 -199 -16 -174 111 -293 268 -250
20 6 44 19 54 30 24 26 32 25 39 -5 4 -16 13 -25 26 -25 19 0 20 7 20 115 0
63 -3 115 -7 116 -152 13 -193 9 -193 -21 0 -18 7 -20 70 -20 70 0 70 0 70
-27 0 -41 -36 -92 -75 -109 -111 -46 -206 23 -213 155 -6 116 53 195 145 195
60 -1 107 -25 125 -64 10 -23 19 -30 40 -30 34 0 35 10 7 60 -37 66 -135 101
-223 79z"/>
<path d="M11395 651 c-83 -21 -133 -74 -156 -164 -32 -128 33 -258 144 -288
146 -39 270 61 270 219 0 99 -41 179 -113 217 -33 17 -108 26 -145 16z m115
-63 c58 -30 85 -82 85 -163 -1 -108 -62 -185 -147 -185 -123 0 -198 148 -139
275 40 88 116 116 201 73z"/>
<path d="M14937 646 c-94 -26 -147 -104 -147 -221 0 -141 84 -235 210 -235
123 0 210 99 210 239 0 109 -65 198 -160 220 -55 13 -53 13 -113 -3z m142 -65
c50 -35 65 -68 69 -144 3 -61 0 -79 -20 -116 -56 -105 -198 -108 -255 -6 -27
47 -31 146 -9 198 37 86 143 120 215 68z"/>
<path d="M15381 650 c-50 -12 -84 -42 -100 -87 -12 -34 -12 -46 -1 -72 18 -44
39 -56 150 -85 128 -34 158 -72 107 -132 -19 -22 -34 -28 -78 -31 -72 -5 -120
18 -135 67 -9 27 -18 36 -38 38 -21 3 -26 -1 -26 -18 0 -29 28 -82 54 -100 84
-61 235 -47 283 26 24 37 22 107 -3 135 -24 28 -84 54 -156 69 -63 12 -108 42
-108 69 0 10 9 30 20 44 43 54 159 40 183 -23 9 -23 17 -30 39 -30 26 0 28 2
22 28 -10 39 -33 71 -63 87 -35 18 -109 26 -150 15z"/>
<path d="M17338 650 c-83 -16 -130 -81 -109 -152 15 -49 36 -62 151 -92 128
-34 158 -72 107 -132 -18 -20 -35 -28 -74 -31 -79 -8 -124 20 -147 90 -8 26
-56 23 -56 -3 0 -49 51 -109 109 -129 107 -36 230 15 246 102 14 75 -39 125
-161 152 -115 26 -147 63 -104 118 43 54 159 40 183 -23 9 -23 17 -30 39 -30
26 0 28 2 22 28 -21 81 -102 122 -206 102z"/>
<path d="M6580 425 l0 -225 30 0 30 0 0 103 0 102 100 -1 c98 0 100 0 100 23
0 22 -2 23 -100 23 l-100 0 0 75 0 75 115 0 115 0 0 25 0 25 -145 0 -145 0 0
-225z"/>
<path d="M7020 630 c-9 -18 -88 -216 -146 -368 l-24 -63 31 3 c28 3 34 9 51
58 12 30 24 60 29 65 8 11 176 11 187 0 4 -3 16 -32 28 -63 19 -52 24 -57 54
-60 28 -3 32 -1 26 15 -4 10 -43 111 -88 226 -79 201 -82 207 -109 207 -18 0
-32 -7 -39 -20z m74 -142 c19 -53 32 -99 29 -102 -4 -3 -38 -6 -76 -6 -51 0
-68 3 -65 13 3 6 20 54 38 105 18 51 34 91 36 90 1 -2 18 -47 38 -100z"/>
<path d="M7754 635 c-4 -8 -5 -86 -3 -172 4 -136 7 -163 24 -193 61 -105 261
-106 314 -1 19 36 21 58 21 211 l0 171 -27 -3 -28 -3 -5 -170 c-3 -93 -9 -178
-14 -188 -21 -44 -111 -61 -167 -31 -50 25 -59 64 -59 239 l0 155 -25 0 c-14
0 -28 -7 -31 -15z"/>
<path d="M8210 426 l0 -226 145 0 145 0 0 25 0 25 -115 0 -115 0 -2 198 -3
197 -27 3 -28 3 0 -225z"/>
<path d="M8450 625 c0 -23 3 -24 73 -27 l72 -3 3 -197 2 -198 30 0 30 0 0 200
0 200 70 0 c68 0 70 1 70 25 l0 25 -175 0 -175 0 0 -25z"/>
<path d="M8911 628 c-5 -13 -43 -110 -85 -216 -42 -107 -76 -198 -76 -203 0
-5 12 -9 28 -9 24 0 29 6 50 65 13 36 27 65 30 66 4 0 47 1 96 1 l89 1 25 -66
c23 -62 26 -67 54 -67 38 0 40 -11 -60 245 -78 197 -80 200 -111 203 -25 3
-33 -1 -40 -20z m77 -141 c17 -50 32 -95 32 -99 0 -5 -31 -8 -70 -8 -45 0 -70
4 -70 11 0 17 63 189 70 189 3 0 20 -42 38 -93z"/>
<path d="M9200 425 l0 -227 118 3 c96 3 123 8 152 25 74 43 112 149 92 257
-22 120 -79 157 -249 165 l-113 5 0 -228z m249 147 c40 -30 56 -69 56 -147 0
-124 -51 -175 -177 -175 l-68 0 0 176 0 177 81 -6 c59 -4 89 -11 108 -25z"/>
<path d="M9818 644 c-5 -4 -8 -106 -8 -226 l0 -218 30 0 30 0 0 95 0 95 88 0
c48 0 92 -4 98 -8 21 -14 33 -49 40 -116 l7 -66 33 0 c32 0 33 1 24 26 -6 14
-10 43 -10 65 0 47 -23 107 -44 115 -13 5 -10 11 12 33 58 53 45 157 -23 191
-33 16 -264 28 -277 14z m263 -73 c24 -30 24 -72 0 -102 -17 -22 -29 -24 -115
-27 l-96 -4 0 82 0 82 96 -4 c86 -4 99 -7 115 -27z"/>
<path d="M10240 425 l0 -225 155 0 155 0 0 25 0 25 -125 0 -126 0 3 78 3 77
113 -4 112 -3 0 26 0 26 -115 0 -115 0 0 75 0 75 126 0 c124 0 125 0 122 23
-3 22 -6 22 -155 25 l-153 3 0 -226z"/>
<path d="M11100 425 l0 -226 28 3 27 3 0 220 0 220 -27 3 -28 3 0 -226z"/>
<path d="M11730 425 l0 -225 25 0 25 0 2 178 3 177 117 -177 c109 -166 119
-178 148 -178 l30 0 0 225 0 225 -25 0 -25 0 -2 -182 -3 -182 -118 182 c-109
167 -121 182 -148 182 l-29 0 0 -225z"/>
<path d="M12297 638 c-44 -112 -167 -430 -167 -433 0 -3 13 -5 29 -5 26 0 30
6 53 67 l24 67 95 -1 94 0 25 -67 c23 -63 26 -66 57 -66 l33 0 -19 48 c-10 26
-47 119 -81 207 -34 88 -66 168 -71 178 -11 20 -64 24 -72 5z m72 -148 c17
-49 31 -94 31 -100 0 -6 -28 -10 -70 -10 -38 0 -70 3 -70 8 0 15 65 192 71
192 4 0 21 -40 38 -90z"/>
<path d="M12587 643 c-4 -3 -7 -105 -7 -225 l0 -218 150 0 150 0 0 25 0 25
-120 0 -120 0 0 200 0 200 -23 0 c-13 0 -27 -3 -30 -7z"/>
<path d="M13107 643 c-4 -3 -7 -105 -7 -225 l0 -218 120 0 c134 0 173 11 208
55 40 51 24 144 -28 167 l-28 12 29 27 c24 22 29 35 29 72 0 61 -30 96 -90
108 -54 10 -224 12 -233 2z m228 -57 c37 -16 47 -43 32 -88 -11 -34 -62 -50
-145 -46 l-57 3 -3 59 c-2 32 -1 65 2 72 7 19 126 19 171 0z m33 -202 c33 -21
31 -85 -4 -113 -23 -18 -41 -21 -115 -21 l-89 0 0 75 0 74 58 3 c76 4 122 -1
150 -18z"/>
<path d="M13530 478 c0 -194 8 -226 68 -261 64 -38 186 -31 236 12 43 38 49
68 50 246 l1 170 -27 3 -28 3 0 -148 c0 -175 -9 -216 -53 -244 -45 -29 -119
-21 -155 15 -27 26 -27 28 -32 199 l-5 172 -27 3 -28 3 0 -173z"/>
<path d="M13980 425 l0 -225 155 0 155 0 0 25 0 25 -125 0 -125 0 0 81 0 81
85 -7 c103 -8 145 -1 145 26 0 18 -8 19 -115 19 l-115 0 0 75 0 75 126 0 c124
0 125 0 122 23 -3 22 -6 22 -155 25 l-153 3 0 -226z"/>
<path d="M14360 426 l0 -226 30 0 30 0 2 174 3 174 111 -172 c102 -157 113
-171 142 -174 l32 -3 0 225 0 226 -25 0 -25 0 -2 -180 -3 -181 -116 178 c-106
163 -119 178 -148 181 l-31 3 0 -225z"/>
<path d="M15899 433 c-46 -119 -85 -220 -87 -225 -2 -4 10 -8 26 -8 27 0 32 6
52 57 13 32 27 63 31 68 4 6 41 9 86 8 43 -1 83 -3 90 -3 6 0 22 -28 35 -62
22 -58 26 -63 57 -66 25 -3 32 0 29 10 -3 7 -43 109 -88 226 l-83 212 -32 0
-32 0 -84 -217z m160 35 c16 -43 26 -80 23 -83 -6 -6 -142 -7 -142 -1 0 3 17
51 37 107 32 90 38 99 46 78 5 -13 21 -59 36 -101z"/>
<path d="M16270 426 l0 -226 30 0 30 0 -2 223 -3 222 -27 3 -28 3 0 -225z"/>
<path d="M16430 425 l0 -225 30 0 30 0 0 95 0 95 81 0 c44 0 89 -5 99 -10 21
-11 40 -67 40 -117 0 -49 9 -63 42 -63 23 0 29 4 24 16 -3 9 -9 41 -12 72 -7
72 -21 110 -44 117 -15 5 -13 10 16 39 29 29 34 41 34 80 0 36 -6 52 -27 76
-35 39 -79 49 -210 50 l-103 0 0 -225z m259 151 c14 -13 21 -31 21 -56 0 -59
-25 -74 -131 -78 l-89 -4 0 82 0 82 89 -4 c70 -2 93 -7 110 -22z"/>
<path d="M16857 643 c-4 -3 -7 -105 -7 -225 l0 -218 155 0 155 0 0 25 0 25
-125 0 -126 0 3 78 3 77 110 0 c106 0 110 1 113 22 3 22 1 22 -110 25 l-113 3
0 70 0 70 123 3 122 3 0 24 0 25 -148 0 c-82 0 -152 -3 -155 -7z"/>
</g>
</svg>
