<?xml version="1.0" standalone="no"?>
<!DOCTYPE svg PUBLIC "-//W3C//DTD SVG 20010904//EN"
 "http://www.w3.org/TR/2001/REC-SVG-20010904/DTD/svg10.dtd">
<svg version="1.0" xmlns="http://www.w3.org/2000/svg"
 width="64.000000pt" height="64.000000pt" viewBox="0 0 64.000000 64.000000"
 preserveAspectRatio="xMidYMid meet">

<g transform="translate(0.000000,64.000000) scale(0.100000,-0.100000)"
fill="#000000" stroke="none">
<path d="M0 320 l0 -320 320 0 320 0 0 320 0 320 -320 0 -320 0 0 -320z m335
94 c0 -46 -3 -59 -15 -59 -11 0 -16 13 -18 49 -4 56 3 79 21 73 8 -2 12 -24
12 -63z m-80 -46 c-34 -41 -40 -70 -20 -111 36 -75 134 -75 170 0 20 41 14 70
-20 111 -17 21 -21 32 -13 40 31 31 95 -72 83 -134 -11 -62 -73 -114 -135
-114 -63 0 -124 52 -136 114 -11 61 51 161 83 134 10 -8 7 -17 -12 -40z"/>
</g>
</svg>
