<?xml version="1.0" standalone="no"?>
<!DOCTYPE svg PUBLIC "-//W3C//DTD SVG 20010904//EN"
 "http://www.w3.org/TR/2001/REC-SVG-20010904/DTD/svg10.dtd">
<svg version="1.0" xmlns="http://www.w3.org/2000/svg"
 width="50.000000pt" height="50.000000pt" viewBox="0 0 50.000000 50.000000"
 preserveAspectRatio="xMidYMid meet">

<g transform="translate(0.000000,50.000000) scale(0.100000,-0.100000)"
fill="#000000" stroke="none">
<path d="M52 458 c-16 -16 -16 -180 0 -196 8 -8 45 -12 100 -12 l88 0 0 -30
c0 -28 -2 -29 -20 -18 -23 15 -53 2 -58 -26 -4 -21 71 -112 109 -131 15 -8 51
-15 79 -15 44 0 56 5 81 29 27 27 29 35 29 100 0 57 -3 72 -17 79 -10 5 -23 7
-30 5 -6 -2 -14 1 -18 6 -3 6 -14 11 -23 11 -15 0 -17 11 -14 91 2 60 -1 95
-8 105 -16 19 -279 21 -298 2z m98 -80 c6 -24 13 -51 16 -60 3 -10 1 -18 -5
-18 -6 0 -11 5 -11 10 0 6 -9 10 -20 10 -11 0 -20 -4 -20 -10 0 -5 -5 -10 -11
-10 -6 0 -8 8 -5 18 3 9 10 36 16 60 6 23 15 42 20 42 5 0 14 -19 20 -42z m84
10 c13 -38 -3 -82 -32 -86 -21 -3 -22 0 -22 58 0 58 1 61 22 58 14 -2 26 -14
32 -30z m71 22 c3 -5 -3 -10 -14 -10 -24 0 -27 -10 -9 -28 9 -9 8 -12 -5 -12
-20 0 -32 23 -23 45 6 17 42 20 51 5z m-15 -150 c0 -47 4 -80 10 -80 6 0 10
16 10 35 0 24 5 35 15 35 10 0 15 -11 15 -35 0 -19 5 -35 10 -35 6 0 10 14 10
30 0 20 5 30 15 30 10 0 15 -10 15 -30 0 -34 17 -41 22 -10 7 46 23 21 26 -40
4 -88 -15 -110 -93 -110 -47 0 -59 4 -90 31 -53 47 -80 88 -66 102 8 8 17 5
34 -11 13 -12 26 -22 30 -22 4 0 7 43 7 95 0 78 3 95 15 95 12 0 15 -16 15
-80z"/>
<path d="M120 350 c0 -5 5 -10 10 -10 6 0 10 5 10 10 0 6 -4 10 -10 10 -5 0
-10 -4 -10 -10z"/>
<path d="M200 360 c0 -25 4 -39 10 -35 6 3 10 19 10 35 0 16 -4 32 -10 35 -6
4 -10 -10 -10 -35z"/>
</g>
</svg>
