<?xml version="1.0" standalone="no"?>
<!DOCTYPE svg PUBLIC "-//W3C//DTD SVG 20010904//EN"
 "http://www.w3.org/TR/2001/REC-SVG-20010904/DTD/svg10.dtd">
<svg version="1.0" xmlns="http://www.w3.org/2000/svg"
 width="512.000000pt" height="512.000000pt" viewBox="0 0 512.000000 512.000000"
 preserveAspectRatio="xMidYMid meet">

<g transform="translate(0.000000,512.000000) scale(0.100000,-0.100000)"
fill="#000000" stroke="none">
<path d="M4259 3339 c6 -149 66 -80 -983 -1126 -508 -507 -937 -928 -953 -936
-54 -28 -142 -38 -211 -23 l-64 13 587 -587 587 -587 108 33 c655 206 1204
674 1514 1293 168 335 252 670 271 1082 l5 126 -430 397 c-236 218 -431 396
-432 396 -2 0 -2 -36 1 -81z"/>
</g>
</svg>
