<?xml version="1.0" standalone="no"?>
<!DOCTYPE svg PUBLIC "-//W3C//DTD SVG 20010904//EN"
 "http://www.w3.org/TR/2001/REC-SVG-20010904/DTD/svg10.dtd">
<svg version="1.0" xmlns="http://www.w3.org/2000/svg"
 width="512.000000pt" height="512.000000pt" viewBox="0 0 512.000000 512.000000"
 preserveAspectRatio="xMidYMid meet">

<g transform="translate(0.000000,512.000000) scale(0.100000,-0.100000)"
fill="#000000" stroke="none">
<path d="M365 3932 c-78 -27 -138 -66 -193 -127 -96 -104 -125 -203 -120 -404
3 -122 3 -124 30 -144 l28 -21 27 21 28 20 5 159 c4 139 8 165 28 205 36 74
87 125 160 161 l67 33 2135 0 2135 0 67 -33 c73 -36 124 -87 160 -161 l23 -46
0 -545 0 -545 -28 -57 c-31 -64 -94 -124 -165 -160 -47 -23 -50 -23 -448 -26
l-400 -3 -221 179 c-138 112 -239 186 -267 197 -91 35 -209 4 -276 -71 -59
-68 -75 -137 -56 -252 l8 -52 -1339 2 -1338 3 -65 36 c-79 43 -143 117 -165
191 -11 36 -15 96 -15 203 0 169 -8 195 -60 195 -52 0 -60 -26 -60 -190 0
-223 30 -317 134 -420 59 -59 89 -78 171 -111 l60 -24 1355 -5 1354 -5 81
-405 c45 -223 85 -416 89 -430 14 -42 55 -89 98 -111 33 -17 55 -20 104 -17
97 6 133 36 206 173 67 125 102 166 173 203 46 23 64 26 207 31 153 6 157 7
199 36 56 40 84 95 84 165 0 88 -21 118 -175 243 l-137 112 326 6 c311 5 329
7 386 29 81 32 111 51 172 111 57 56 105 146 122 227 15 72 15 996 0 1078 -25
138 -117 257 -247 321 l-76 38 -2160 2 c-2030 2 -2164 1 -2211 -15z m3041
-1428 c21 -15 62 -45 89 -68 28 -24 192 -156 365 -296 388 -312 390 -313 390
-360 0 -26 -7 -43 -26 -61 -24 -23 -34 -24 -177 -30 -165 -6 -205 -16 -281
-69 -61 -41 -97 -88 -157 -201 -57 -109 -72 -126 -116 -135 -25 -5 -36 0 -61
23 -31 28 -33 34 -136 559 -109 551 -111 567 -74 612 46 56 123 67 184 26z"/>
<path d="M473 3600 c-86 -18 -167 -81 -211 -164 -23 -44 -27 -64 -27 -136 0
-68 4 -94 23 -131 48 -98 135 -159 256 -177 87 -14 136 -46 166 -107 46 -94 8
-210 -82 -254 -89 -42 -186 -19 -249 59 -39 48 -62 57 -94 36 -66 -43 15 -164
145 -217 58 -23 185 -18 245 11 232 112 233 449 1 556 -27 13 -75 26 -105 30
-72 9 -123 35 -158 80 -22 30 -28 49 -31 103 -3 59 0 71 26 112 66 102 195
117 294 34 37 -31 52 -31 84 0 30 30 26 58 -14 93 -67 59 -183 90 -269 72z"/>
<path d="M980 3590 c-19 -19 -20 -33 -20 -540 0 -507 1 -521 20 -540 21 -21
47 -25 66 -12 32 21 34 52 34 557 l0 506 -25 24 c-29 30 -49 31 -75 5z"/>
<path d="M1625 3596 c-167 -41 -294 -175 -355 -371 -27 -89 -29 -242 -5 -336
67 -259 295 -432 516 -391 145 27 268 126 339 273 46 94 48 111 20 139 -18 18
-33 20 -168 20 -166 0 -192 -8 -192 -60 0 -47 30 -60 138 -60 l93 0 -18 -31
c-30 -52 -128 -135 -179 -153 -218 -74 -432 110 -451 389 -12 186 78 368 222
443 42 22 63 27 130 27 104 0 159 -28 243 -121 47 -52 66 -66 88 -66 30 0 54
24 54 55 0 50 -115 169 -204 211 -95 44 -180 54 -271 32z"/>
<path d="M2339 3581 l-30 -30 3 -516 c3 -498 4 -517 22 -531 25 -18 47 -18 72
0 18 14 19 33 24 445 l5 430 249 -430 c137 -237 259 -437 271 -445 14 -9 33
-12 49 -8 57 14 56 3 56 561 0 500 -1 514 -20 533 -25 25 -41 25 -71 1 l-24
-19 -5 -412 -5 -412 -244 422 c-244 422 -257 440 -307 440 -9 0 -29 -13 -45
-29z"/>
<path d="M3444 3585 l-25 -25 3 -407 3 -408 26 -56 c33 -69 89 -127 155 -160
41 -20 64 -24 144 -24 116 0 167 22 240 102 83 91 83 91 88 550 l3 403 -25 25
c-30 30 -49 32 -76 5 -19 -19 -20 -33 -20 -406 0 -277 -3 -398 -12 -428 -23
-77 -118 -146 -199 -146 -78 0 -159 54 -191 127 -17 39 -19 77 -21 444 -3 380
-4 402 -22 415 -27 20 -42 17 -71 -11z"/>
<path d="M4245 3586 l-26 -26 3 -521 c3 -502 4 -521 22 -535 27 -19 52 -18 76
6 19 19 20 33 20 225 l0 205 140 0 c176 0 226 16 311 99 76 75 103 145 97 252
-7 129 -70 224 -186 281 l-67 33 -182 3 -182 4 -26 -26z m401 -115 c54 -25
110 -92 124 -150 22 -91 -22 -188 -107 -238 -45 -26 -56 -28 -185 -31 l-138
-4 0 221 0 221 133 0 c107 0 140 -4 173 -19z"/>
<path d="M66 3148 c-21 -30 -21 -126 0 -156 10 -14 26 -22 44 -22 41 0 60 32
60 100 0 68 -19 100 -60 100 -18 0 -34 -8 -44 -22z"/>
</g>
</svg>
