<?xml version="1.0" standalone="no"?>
<!DOCTYPE svg PUBLIC "-//W3C//DTD SVG 20010904//EN"
 "http://www.w3.org/TR/2001/REC-SVG-20010904/DTD/svg10.dtd">
<svg version="1.0" xmlns="http://www.w3.org/2000/svg"
 width="512.000000pt" height="512.000000pt" viewBox="0 0 512.000000 512.000000"
 preserveAspectRatio="xMidYMid meet">

<g transform="translate(0.000000,512.000000) scale(0.100000,-0.100000)"
fill="#000000" stroke="none">
<path d="M298 1586 c-155 -42 -222 -223 -132 -358 34 -53 90 -87 165 -100 79
-14 109 -38 109 -88 0 -48 -33 -80 -81 -80 -43 0 -74 30 -83 81 -12 69 -83 96
-129 50 -48 -47 -9 -176 71 -237 171 -131 418 24 372 234 -23 101 -92 165
-201 184 -79 14 -109 38 -109 88 0 48 33 80 81 80 43 0 74 -30 83 -81 8 -45
37 -72 77 -72 46 0 74 34 72 87 -5 147 -151 252 -295 212z"/>
<path d="M770 1587 c-48 -24 -51 -42 -48 -332 3 -268 3 -271 29 -320 88 -172
330 -172 418 0 l26 49 0 283 c0 277 0 283 -22 304 -29 29 -77 29 -106 0 -21
-21 -22 -29 -25 -294 -3 -261 -4 -273 -24 -294 -29 -31 -87 -31 -116 0 -20 21
-21 33 -24 294 -3 257 -4 274 -23 292 -28 27 -56 33 -85 18z"/>
<path d="M1370 1588 c-49 -26 -50 -38 -48 -400 4 -416 -11 -383 171 -383 112
0 127 2 172 26 122 62 169 229 95 331 -25 34 -25 42 0 76 50 69 44 189 -14
264 -52 69 -108 91 -240 95 -79 3 -118 0 -136 -9z m247 -170 c30 -28 31 -83 1
-115 -18 -19 -32 -23 -80 -23 l-58 0 0 80 0 80 57 0 c44 0 62 -5 80 -22z m0
-320 c30 -28 31 -83 1 -115 -18 -19 -32 -23 -80 -23 l-58 0 0 80 0 80 57 0
c44 0 62 -5 80 -22z"/>
<path d="M2078 1586 c-155 -42 -222 -223 -132 -358 34 -53 90 -87 165 -100 79
-14 109 -38 109 -88 0 -48 -33 -80 -81 -80 -43 0 -74 30 -83 81 -12 69 -83 96
-129 50 -48 -47 -9 -176 71 -237 171 -131 418 24 372 234 -23 101 -92 165
-201 184 -79 14 -109 38 -109 88 0 48 33 80 81 80 43 0 74 -30 83 -81 8 -45
37 -72 77 -72 46 0 74 34 72 87 -5 147 -151 252 -295 212z"/>
<path d="M2657 1586 c-62 -17 -116 -61 -147 -122 -24 -47 -25 -54 -25 -264 0
-212 0 -216 26 -265 67 -131 235 -170 351 -81 80 61 119 190 71 237 -46 46
-117 19 -129 -50 -4 -20 -16 -46 -27 -58 -28 -32 -86 -31 -115 0 -21 22 -22
32 -22 218 0 191 0 196 23 217 52 49 127 17 141 -59 8 -45 37 -72 77 -72 46 0
74 34 72 87 -5 148 -151 252 -296 212z"/>
<path d="M3130 1587 c-49 -25 -50 -37 -48 -399 3 -332 3 -338 25 -359 29 -29
77 -29 106 0 20 20 22 33 25 156 5 182 13 181 112 -13 83 -163 105 -185 157
-160 15 7 34 26 42 42 12 27 10 35 -52 161 l-65 133 38 31 c149 120 88 370
-100 410 -69 15 -209 14 -240 -2z m247 -169 c30 -28 31 -83 1 -115 -18 -19
-32 -23 -80 -23 l-58 0 0 80 0 80 57 0 c44 0 62 -5 80 -22z"/>
<path d="M3730 1587 c-49 -25 -50 -37 -48 -399 3 -332 3 -338 25 -359 29 -29
77 -29 106 0 22 21 22 25 22 371 0 336 -1 350 -20 369 -28 27 -56 33 -85 18z"/>
<path d="M4010 1588 c-49 -26 -50 -38 -48 -400 4 -416 -11 -383 171 -383 112
0 127 2 172 26 122 62 169 229 95 331 -25 34 -25 42 0 76 50 69 44 189 -14
264 -52 69 -108 91 -240 95 -79 3 -118 0 -136 -9z m247 -170 c30 -28 31 -83 1
-115 -18 -19 -32 -23 -80 -23 l-58 0 0 80 0 80 57 0 c44 0 62 -5 80 -22z m0
-320 c30 -28 31 -83 1 -115 -18 -19 -32 -23 -80 -23 l-58 0 0 80 0 80 57 0
c44 0 62 -5 80 -22z"/>
<path d="M4610 1588 c-49 -26 -50 -38 -48 -400 4 -423 -19 -383 218 -383 161
0 171 1 191 22 29 29 29 77 0 106 -19 20 -34 22 -136 25 l-115 4 0 78 0 78 95
4 c108 3 138 21 138 78 0 57 -30 75 -138 78 l-95 4 0 78 0 78 115 4 c102 3
117 5 136 25 29 29 29 77 0 106 -20 21 -32 22 -179 25 -113 2 -164 -1 -182
-10z"/>
</g>
</svg>
